<?xml version="1.0" standalone="no"?>
<!DOCTYPE svg PUBLIC "-//W3C//DTD SVG 20010904//EN"
 "http://www.w3.org/TR/2001/REC-SVG-20010904/DTD/svg10.dtd">
<svg version="1.0" xmlns="http://www.w3.org/2000/svg"
 width="1000.000000pt" height="1000.000000pt" viewBox="0 0 1000.000000 1000.000000"
 preserveAspectRatio="xMidYMid meet">
<metadata>
Created by potrace 1.11, written by Peter Selinger 2001-2013
</metadata>
<g transform="translate(0.000000,1000.000000) scale(0.100000,-0.100000)"
fill="#000000" stroke="none">
<path d="M7308 9575 c-2 -1 -39 -5 -83 -9 -348 -27 -729 -162 -1043 -370 -106
-71 -108 -72 -225 -167 -289 -234 -535 -559 -690 -909 -53 -120 -97 -235 -97
-253 0 -9 95 -12 433 -11 237 1 438 2 445 3 7 0 16 9 19 19 17 46 134 207 223
306 227 254 573 452 875 502 17 3 36 7 44 10 64 22 458 21 523 -1 7 -2 27 -6
43 -8 17 -3 50 -10 75 -17 25 -7 53 -14 63 -16 103 -19 311 -120 453 -220 94
-65 288 -247 363 -341 104 -131 224 -350 276 -508 15 -44 28 -87 30 -95 2 -8
8 -33 13 -55 14 -51 31 -152 40 -235 13 -125 5 -460 -13 -512 -2 -7 -6 -29 -9
-48 -12 -86 -77 -299 -99 -327 -5 -7 -7 -13 -3 -13 19 0 -147 -288 -212 -369
-76 -94 -88 -108 -167 -186 -156 -156 -265 -234 -445 -321 -73 -35 -254 -99
-308 -109 -15 -2 -50 -9 -78 -14 -177 -34 -394 -32 -579 5 -90 18 -256 74
-326 109 l-47 24 -163 -171 c-90 -95 -203 -213 -250 -263 -145 -151 -199 -210
-199 -216 0 -3 19 -16 43 -29 23 -14 60 -35 82 -47 260 -149 624 -263 920
-290 151 -13 546 -5 575 12 3 2 33 7 65 10 87 11 306 67 420 110 183 67 446
210 574 311 393 312 652 637 836 1049 49 109 139 391 150 470 2 11 8 41 14 66
6 25 13 72 17 105 3 32 8 62 10 65 17 27 25 516 11 649 -39 366 -117 641 -264
935 -30 61 -64 122 -74 137 -11 14 -19 29 -19 33 0 13 -106 162 -196 275 -242
303 -531 539 -848 695 -201 98 -487 186 -681 209 -27 4 -70 9 -95 12 -48 6
-417 14 -422 9z"/>
<path d="M428 7273 c-159 -32 -273 -158 -312 -345 -34 -163 13 -300 154 -448
29 -30 98 -102 153 -160 54 -58 168 -177 252 -265 83 -88 171 -180 194 -205
24 -25 103 -108 176 -185 73 -77 157 -165 187 -196 117 -124 333 -351 362
-382 17 -18 76 -80 131 -138 257 -270 406 -427 436 -459 18 -19 105 -111 194
-205 89 -93 180 -189 201 -211 22 -23 109 -115 194 -204 85 -90 172 -181 193
-204 22 -23 66 -69 99 -103 l61 -61 -1 -1104 c0 -607 -1 -1111 -1 -1120 -1
-17 -32 -18 -505 -18 -539 0 -596 -4 -708 -51 -149 -63 -285 -198 -356 -352
-58 -125 -82 -337 -45 -399 38 -66 -125 -61 2148 -61 1138 0 2087 3 2108 7 29
5 43 16 64 47 25 38 26 43 20 142 -9 144 -50 269 -126 381 -34 50 -123 136
-181 175 -51 35 -180 96 -180 86 0 -2 -12 1 -27 8 -20 8 -179 13 -573 17
l-545 5 0 1117 0 1117 115 120 c63 66 174 181 245 257 179 189 200 212 361
381 78 81 161 169 185 194 24 26 109 115 189 199 80 84 167 176 194 204 109
115 344 362 381 401 22 23 105 111 185 195 80 84 165 174 190 200 42 44 259
272 379 398 92 98 326 344 396 417 118 123 170 221 178 329 12 166 -71 351
-191 427 -106 67 176 62 -3336 63 -2418 1 -3194 -2 -3238 -11z"/>
</g>
</svg>
